<svg xmlns="http://www.w3.org/2000/svg" width="385" height="385" viewBox="0 0 385 385"><defs><style>.a{fill:#8f8f8f;}.b{fill:#fff;}.c,.d,.e,.f,.h{fill:none;}.c,.d,.f{stroke:#342f2f;}.c{stroke-dasharray:6;}.d,.e{stroke-dasharray:8;}.e{stroke:#6e6c6c;}.f{stroke-dasharray:9;}.g{stroke:none;}</style></defs><g transform="translate(-738 -183)"><g transform="translate(0 -314)"><g transform="translate(815 572.122)"><ellipse class="a" cx="118.5" cy="118.552" rx="118.5" ry="118.552" transform="translate(0 0)"/><rect class="b" width="35" height="107.988" rx="17.5" transform="translate(99 25.823)"/><rect class="b" width="33" height="34.04" rx="16.5" transform="translate(101 145.549)"/></g><g class="c" transform="translate(799 558.037)"><ellipse class="g" cx="133.5" cy="133.224" rx="133.5" ry="133.224"/><ellipse class="h" cx="133.5" cy="133.224" rx="133" ry="132.724"/></g><g class="d" transform="translate(783 542.777)"><ellipse class="g" cx="148.5" cy="147.896" rx="148.5" ry="147.896"/><ellipse class="h" cx="148.5" cy="147.896" rx="148" ry="147.396"/></g><g class="e" transform="translate(764 522.823)"><ellipse class="g" cx="168" cy="167.851" rx="168" ry="167.851"/><ellipse class="h" cx="168" cy="167.851" rx="167.5" ry="167.351"/></g><g class="f" transform="translate(738 497)"><circle class="g" cx="192.5" cy="192.5" r="192.5"/><circle class="h" cx="192.5" cy="192.5" r="192"/></g></g></g></svg>