<?xml version="1.0" encoding="iso-8859-1"?>
<!-- Generator: Adobe Illustrator 19.0.0, SVG Export Plug-In . SVG Version: 6.00 Build 0)  -->
<svg version="1.1" id="Layer_1" xmlns="http://www.w3.org/2000/svg" xmlns:xlink="http://www.w3.org/1999/xlink" x="0px" y="0px"
	 viewBox="0 0 510.673 510.673" style="enable-background:new 0 0 510.673 510.673;" xml:space="preserve">
<g transform="translate(0 -1)">
	<g>
		<g>
			<path d="M507.23,100.52C507.23,35.176,380.489,1,255.326,1S3.443,35.176,3.443,100.52c0,19.463,11.254,36.16,30.36,50.012
				c-3.656,6.961-5.635,14.475-5.635,22.562c0,22.423,15.104,40.473,39.515,54.407c-4.054,3.884-6.587,9.34-6.587,15.396
				c0,13.483,6.485,33.067,37.397,49.813c3.221,1.749,6.699,2.581,10.155,2.581c7.573,0,14.912-4.032,18.752-11.157
				c5.632-10.368,1.771-23.317-8.576-28.928c-10.282-5.569-14.03-10.187-14.883-11.974c42.697,14.211,98.027,20.998,151.385,20.998
				c109.419,0,227.179-28.523,227.179-91.136c0-8.087-1.979-15.601-5.637-22.563C495.975,136.678,507.23,119.982,507.23,100.52z
				 M255.326,43.667c129.792,0,209.237,36.8,209.237,56.853c0,5.694-6.427,12.743-18.596,19.916
				C402.63,94.259,327.18,81.958,255.326,81.958c-71.853,0-147.292,12.3-190.624,38.476c-12.167-7.173-18.592-14.221-18.592-19.914
				C46.11,80.467,125.555,43.667,255.326,43.667z M388.422,142.265c-34.393,8.795-79.436,15.087-133.096,15.087
				c-53.653,0-98.692-6.293-133.083-15.088c31.033-9.758,75.732-17.639,133.083-17.639
				C312.679,124.625,357.383,132.506,388.422,142.265z M439.838,173.094c0,14.059-64.661,48.469-184.512,48.469
				S70.835,187.153,70.835,173.094c0-0.772,0.207-1.608,0.595-2.494c48.296,19.45,116.317,29.419,183.896,29.419
				c67.583,0,135.614-9.97,183.916-29.422C439.631,171.484,439.838,172.321,439.838,173.094z"/>
			<path d="M187.433,318.374c14.251,1.963,29.205,3.285,44.459,3.968c0.32,0.021,0.619,0.021,0.96,0.021
				c11.328,0,20.779-8.939,21.291-20.373c0.512-11.776-8.597-21.76-20.373-22.272c-13.952-0.619-27.563-1.835-40.555-3.605
				c-11.691-1.664-22.421,6.549-24.021,18.219C167.593,306.001,175.742,316.774,187.433,318.374z"/>
			<path d="M379.454,278.31c-3.477-11.243-15.381-17.557-26.709-14.059c-12.971,4.032-26.133,7.36-39.125,9.92
				c-11.563,2.261-19.115,13.483-16.832,25.045c2.005,10.176,10.923,17.216,20.907,17.216c1.365,0,2.731-0.128,4.139-0.384
				c14.485-2.859,29.163-6.549,43.584-11.029C376.659,301.521,382.953,289.574,379.454,278.31z"/>
			<path d="M283.392,402.894c11.627-1.963,19.456-12.949,17.493-24.576c-1.984-11.627-13.056-19.584-24.576-17.493
				c-11.136,1.877-21.952,2.837-32.213,2.837l-6.464-0.043h-0.277c-11.648,0-21.184,9.344-21.333,21.035
				c-0.171,11.776,9.237,21.461,21.035,21.632l7.04,0.043C256.725,406.329,269.931,405.156,283.392,402.894z"/>
			<path d="M152.576,397.774c9.856,0,18.709-6.869,20.864-16.917c2.432-11.52-4.928-22.827-16.448-25.28
				c-22.251-4.736-31.04-9.579-33.216-10.944c-9.963-6.357-23.147-3.349-29.419,6.613c-6.315,9.941-3.371,23.125,6.592,29.44
				c10.411,6.592,26.283,12.181,47.168,16.619C149.611,397.625,151.125,397.774,152.576,397.774z"/>
			<path d="M370.176,373.966c15.445-7.829,29.227-16.427,39.872-24.917c9.216-7.36,10.709-20.779,3.371-29.995
				c-7.36-9.216-20.779-10.709-29.995-3.371c-8.256,6.613-19.797,13.781-32.491,20.181c-10.517,5.333-14.741,18.155-9.429,28.672
				c3.755,7.424,11.285,11.712,19.072,11.712C363.797,376.249,367.104,375.502,370.176,373.966z"/>
			<path d="M419.994,381.39c-9.984-6.208-23.168-3.093-29.355,6.933c-3.115,5.056-9.877,13.077-24.299,22.699
				c-9.792,6.528-12.459,19.776-5.909,29.589c4.096,6.165,10.88,9.493,17.771,9.493c4.053,0,8.171-1.152,11.819-3.584
				c16.704-11.136,29.12-23.168,36.907-35.776C433.114,400.718,430.02,387.577,419.994,381.39z"/>
			<path d="M294.212,442.937c-12.373,3.776-25.707,7.232-39.616,10.304c-11.499,2.517-18.773,13.909-16.256,25.408
				c2.197,9.963,11.029,16.768,20.821,16.768c1.515,0,3.051-0.171,4.608-0.512c15.019-3.285,29.461-7.061,42.944-11.179
				c11.264-3.435,17.621-15.381,14.144-26.645C317.402,445.817,305.519,439.438,294.212,442.937z"/>
			<path d="M172.826,465.934c-13.312,1.323-27.157,2.368-41.515,3.093c-11.776,0.597-20.821,10.624-20.224,22.4
				c0.576,11.392,10.005,20.245,21.291,20.245c0.363,0,0.725-0.021,1.088-0.043c15.061-0.747,29.589-1.856,43.563-3.243
				c11.733-1.173,20.288-11.605,19.136-23.339C195.012,473.337,184.495,464.782,172.826,465.934z"/>
		</g>
	</g>
</g>
<g>
</g>
<g>
</g>
<g>
</g>
<g>
</g>
<g>
</g>
<g>
</g>
<g>
</g>
<g>
</g>
<g>
</g>
<g>
</g>
<g>
</g>
<g>
</g>
<g>
</g>
<g>
</g>
<g>
</g>
</svg>