<svg id="Layer_1" data-name="Layer 1" xmlns="http://www.w3.org/2000/svg" viewBox="0 0 400 300"><title>#66_calling_twocolour</title><path d="M126.58,37.82c-39.68,11.64-64.82,51.43-57,92,4.14,21.34,17.16,41.36,48.25,50.8,82.9,25.18,169.35,8.26,195-31S317.8,26.17,232.92,23.55C191.34,22.27,153.93,29.81,126.58,37.82Z" fill="#e6e6e6" opacity="0.27"/><ellipse cx="207.73" cy="259.36" rx="130.51" ry="18.99" fill="#e6e6e6" opacity="0.45"/><path d="M266.55,211h-2.11v-3.4a3.5,3.5,0,0,0-3.5-3.5H248.49a3.51,3.51,0,0,0-3.51,3.5V211h-2.1v-3.4a5.61,5.61,0,0,1,5.61-5.61h12.45a5.61,5.61,0,0,1,5.61,5.61Z" fill="#ffd200"/><path d="M266.55,211h-2.11v-3.4a3.5,3.5,0,0,0-3.5-3.5H248.49a3.51,3.51,0,0,0-3.51,3.5V211h-2.1v-3.4a5.61,5.61,0,0,1,5.61-5.61h12.45a5.61,5.61,0,0,1,5.61,5.61Z" fill="#fff" opacity="0.51"/><rect x="168.79" y="41.11" width="11.59" height="22.67" transform="translate(56.46 -86.4) rotate(32.89)" fill="#ffd200"/><path d="M123.94,102.21s19.95-22.11,52.55-27.93L161.37,117s-21.09,11.31-40.86,10.53Z" fill="#643ced"/><path d="M123.94,102.21s19.95-22.11,52.55-27.93L161.37,117s-21.09,11.31-40.86,10.53Z" opacity="0.08"/><path d="M185.73,254.29s-.65,3.81-3.84,4.66-3.46,4.17-.41,4.48,9.89-4.79,9.89-4.79l-1-4.63Z" fill="#643ced"/><path d="M237.08,255.35s1.52,3.56,4.82,3.65,4.34,3.24,1.44,4.25-10.73-2.34-10.73-2.34l-.07-4.75Z" fill="#643ced"/><path d="M348.85,77.14a8.54,8.54,0,0,0-8.54-8.54,8.83,8.83,0,0,0-1.37.12,11.51,11.51,0,0,0-10.14-6.06l-.42,0a14,14,0,0,0,.42-3.32,13.67,13.67,0,0,0-27.34,0,13.49,13.49,0,0,0,.43,3.32l-.43,0a11.51,11.51,0,1,0,0,23h40V85.6A8.53,8.53,0,0,0,348.85,77.14Z" fill="#e6e6e6"/><path d="M105,160.44a7.33,7.33,0,0,0-7.33-7.33,6.45,6.45,0,0,0-1.17.11,9.87,9.87,0,0,0-8.7-5.2h-.37a11.57,11.57,0,0,0,.37-2.84,11.73,11.73,0,0,0-23.45,0,11.57,11.57,0,0,0,.36,2.84H64.3a9.88,9.88,0,1,0,0,19.75H98.58v-.07A7.31,7.31,0,0,0,105,160.44Z" fill="#e6e6e6"/><ellipse cx="225.12" cy="35.88" rx="20.28" ry="16.88" fill="#ffd200"/><polygon points="210.98 43.59 203.75 55.87 215.64 47.05 210.98 43.59" fill="#ffd200"/><circle cx="217.13" cy="35.88" r="2.5" fill="#24285b"/><circle cx="225.17" cy="35.88" r="2.5" fill="#24285b"/><circle cx="233.11" cy="35.88" r="2.5" fill="#24285b"/><path d="M175.62,44.37s-1.06,7.29-.1,12.24a3.7,3.7,0,0,0,4.35,2.92c2.49-.52,5.69-1.94,6.73-5.78l2.57-6.3a6.61,6.61,0,0,0-2.51-7.22C182.69,37,176,39.9,175.62,44.37Z" fill="#f4a28c"/><polygon points="189.06 50.19 193.69 73.89 180.45 75.5 182.35 58.06 189.06 50.19" fill="#f4a28c"/><path d="M190.19,44.26l-.42,9.45a5,5,0,0,1-5.92-2.33,6.14,6.14,0,0,1,.38-6.73,82.5,82.5,0,0,1-11.18.25c-.76-.08-2.45.18-2.35-3.16,0,0-.94-5.45,2.88-6.51S191.1,36.62,190.19,44.26Z" fill="#24285b"/><path d="M171.3,72.07s55.38-10.62,74.31,0-20.77,109.39-20.77,109.39l-58.34-1.85S115.45,82.22,171.3,72.07Z" fill="#643ced"/><path d="M224.6,85.68s2.58,26.36-2.34,52.72-28.57,42.07-28.57,42.07l31.15,1s12.29-32.48,15.23-43.22S224.6,85.68,224.6,85.68Z" opacity="0.08"/><path d="M176.49,71.17l23.82-3.82-18,81.25S166.05,104.18,176.49,71.17Z" fill="#fff"/><path d="M200.13,68.2,210,96.92,196.25,108.4l3.88,14.54L182.28,148.6S192.05,87.27,200.13,68.2Z" fill="#643ced"/><path d="M200.13,68.2,210,96.92,196.25,108.4l3.88,14.54L182.28,148.6S192.05,87.27,200.13,68.2Z" opacity="0.08"/><polygon points="176.49 71.17 181.34 67.35 191.7 63.7 196.25 68.68 183.25 74.6 176.49 71.17" fill="#fff"/><polygon points="179.67 72.78 182.28 69.15 186.37 73.18 181.14 78.98 179.67 72.78" fill="#24285b"/><path d="M180.63,76.83s-6.2,26.36-4.43,49.24c0,0,3.52,18.66,6.08,22.53l6.17-34.46s-5-26.73-4-40.07Z" fill="#24285b"/><path d="M249.37,75.12c12.76,13.24,22.67,45.15,10.81,120l-13.32,3.24s.15-24-6-56.28a247.7,247.7,0,0,0-12.21-42.17,106.07,106.07,0,0,1-3.53-11C221.3,74.62,239.07,64.44,249.37,75.12Z" fill="#643ced"/><path d="M249.37,75.12c12.76,13.24,22.67,45.15,10.81,120l-13.32,3.24s.15-24-6-56.28a247.7,247.7,0,0,0-12.21-42.17,106.07,106.07,0,0,1-3.53-11C221.3,74.62,239.07,64.44,249.37,75.12Z" fill="#fff" opacity="0.46"/><path d="M166.5,179.61l15.78,74.79h11.41l-2.61-46a19.94,19.94,0,0,1,13.48-20l20.28-6.9Z" fill="#24285b"/><path d="M224.84,181.46l15.55,75.4h-11.1l-17.71-42.11a45,45,0,0,0-23.13-23.62h0Z" fill="#24285b"/><path d="M156.22,58.64,161.76,66s-23.73,54.26-37.18,60.7S91.36,104.13,156.22,58.64Z" fill="#643ced"/><path d="M161.76,56.2s2.7-7.69,8.73-3.76S161.76,66,161.76,66l-4.22-4.1Z" fill="#f4a28c"/><path d="M250.72,197.43s-3.53,5.65,0,9.17,9.76,6.94,9.46-11.47Z" fill="#f4a28c"/><rect x="230.08" y="210.24" width="51.76" height="29.27" fill="#ffd200"/><path d="M271.3,210.24s8.79,28.26-31.64,29.27h42.18V210.24Z" opacity="0.08"/><path d="M176.49,71.17s-11.73,12.58-14.73,27.08l8.84,11.25-5.86,8s5.56,20.94,17.54,31.1C182.28,148.6,165.5,104.75,176.49,71.17Z" opacity="0.08"/><circle cx="183.02" cy="159.92" r="2.5" opacity="0.08"/><circle cx="184.15" cy="171.92" r="2.5" opacity="0.08"/></svg>