<svg id="Layer_1" data-name="Layer 1" xmlns="http://www.w3.org/2000/svg" viewBox="0 0 400 300"><title>#69_digital content_twocolour</title><path d="M265.63,201s80,0,67.13-54.94c-19.59-83.43-153.48-43.14-218.58-14.79-68.7,29.93-99.42-50.68-39.77-78" fill="none" stroke="#c9c9c9" stroke-linecap="round" stroke-linejoin="round" stroke-width="3" stroke-dasharray="3 12" opacity="0.45"/><ellipse cx="203.01" cy="252.13" rx="128.4" ry="18.46" fill="#e6e6e6" opacity="0.45"/><rect x="234.66" y="237.13" width="61.94" height="16.31" fill="#e6e6e6"/><rect x="221.12" y="221.18" width="61.94" height="16.31" fill="#e6e6e6" opacity="0.43"/><rect x="129.46" y="33.5" width="122.63" height="219.94" fill="#c9c9c9"/><rect x="139.61" y="58.57" width="101.51" height="154.79" fill="#fff"/><circle cx="191.15" cy="233.18" r="12" fill="#fff" opacity="0.56"/><rect x="180.4" y="42.1" width="34.38" height="5.01" opacity="0.12"/><circle cx="167.95" cy="45.15" r="5.6" fill="#fff"/><rect x="150.19" y="87.66" width="81.39" height="92.41" fill="#e6e6e6"/><circle cx="156.27" cy="74.4" r="6.08" opacity="0.12"/><polygon points="197.65 167.98 231.58 167.98 231.58 180.06 193.53 180.06 197.65 167.98" opacity="0.12"/><rect x="167.01" y="69.72" width="17.7" height="3.13" fill="#e6e6e6"/><rect x="167.01" y="75.95" width="17.7" height="3.13" fill="#e6e6e6" opacity="0.56"/><path d="M95,239.57s-10.5-2.87-12.79-12.65c0,0,16.28-3.29,16.75,13.51Z" fill="#643ced" opacity="0.58"/><path d="M96.29,238.53s-7.34-11.61-.88-22.46c0,0,12.38,7.86,6.88,22.48Z" fill="#643ced" opacity="0.73"/><path d="M98.18,238.54s3.88-12.26,15.61-14.58c0,0,2.2,8-7.59,14.61Z" fill="#643ced"/><polygon points="90.56 238.26 92.69 252.83 106.11 252.89 108.09 238.33 90.56 238.26" fill="#24285b"/><g opacity="0.12"><path d="M168.87,186.51a3.88,3.88,0,0,0-2.43.84,5.53,5.53,0,0,0-1.42,1.71,5.53,5.53,0,0,0-1.42-1.71,3.88,3.88,0,0,0-2.43-.84,4.46,4.46,0,0,0-4.37,4.73c0,2.92,2.34,4.92,5.89,7.94l2,1.71a.51.51,0,0,0,.34.13.55.55,0,0,0,.34-.13l2-1.71c3.54-3,5.88-5,5.88-7.94A4.46,4.46,0,0,0,168.87,186.51Z"/></g><rect x="179.34" y="188.33" width="45.54" height="4.17" fill="#c9c9c9"/><path d="M206.06,180.06c.41,0,17.06-31.48,17.06-31.48l-6.14-2.5-24.21,34Z" fill="#643ced"/><rect x="179.34" y="195.02" width="45.54" height="4.17" fill="#c9c9c9" opacity="0.34"/><path d="M178.4,108.13s2.12,6.21,2.09,10.7a3.29,3.29,0,0,1-3.34,3.27c-2.26,0-5.3-.77-6.84-4L167,113a5.9,5.9,0,0,1,1-6.74C171,102.83,177.3,104.28,178.4,108.13Z" fill="#f4a28c"/><polygon points="168.34 114.27 165.02 132.07 176.2 136.76 174.38 121.24 168.34 114.27" fill="#f4a28c"/><path d="M179.53,112.11l2.38,2a1.05,1.05,0,0,1-.24,1.76L179.34,117Z" fill="#f4a28c"/><path d="M174.43,121.68a8,8,0,0,1-3.63-2.28s-1.29,4.53,4.16,6.72Z" fill="#ce8172" opacity="0.31"/><path d="M168.66,117.8s3.61,5.55,6.88,5.62,7.78-.62,6-5.74c-1.11-3.19-4.54-1.09-8.66.86,0,0-3-3.57-3.33-6.24,0,0,2.64-1.2,1.7-3.59,0,0,7.15,1.93,7.62-1.88s-.28-5.74-3.54-6.25-11.33,2.35-12.48,6.58S168.66,117.8,168.66,117.8Z" fill="#24285b"/><path d="M169,116.76a2.85,2.85,0,0,0-1.55-2.61,1.89,1.89,0,0,0-2.11.25c-1.88,1.51.68,5.35,3.65,3.95Z" fill="#f4a28c"/><path d="M223.12,148.58s4.55-9.45-1-11.82-3.89,9.59-3.89,9.59Z" fill="#e59383"/><path d="M150.19,131.44s22.83-1.88,37.61,8.06,9.13,40.56,9.13,40.56H150.19Z" fill="#643ced"/><path d="M159.77,134.47s10.83,4.36,11.51,16.58,3,24.72,14.24,24.72,36.14-27.49,36.14-27.49l1.46.3-17.06,31.48H175.44S155.38,180.34,159.77,134.47Z" opacity="0.12"/><polygon points="182.45 174.06 211.4 148.28 217.13 154.54 197.08 180.06 175.44 180.06 182.45 174.06" fill="#643ced"/><polygon points="182.45 174.06 211.4 148.28 217.13 154.54 197.08 180.06 175.44 180.06 182.45 174.06" fill="#fff" opacity="0.46"/><path d="M212.29,149.25s2.35-5.3,4.84-5.78,9.19,3.41-.74,10.27Z" fill="#f4a28c"/><path d="M161.48,131.57s1.22-4.5,7.52-3.49,10.22,1.45,10.34,7.17Z" fill="#fff"/><path d="M219.52,138.55l-1.84.08,0-1.07,1.83-.08a2,2,0,0,0-.18-4l-1.83.08,0-1.07,1.83-.08a3.09,3.09,0,1,1,.27,6.17Z" fill="#ffd200"/><path d="M219.52,138.55l-1.84.08,0-1.07,1.83-.08a2,2,0,0,0-.18-4l-1.83.08,0-1.07,1.83-.08a3.09,3.09,0,1,1,.27,6.17Z" fill="#fff" opacity="0.46"/><polygon points="218 139.89 211.56 140.17 209.21 130.32 219.14 129.89 218 139.89" fill="#ffd200"/><polygon points="207.34 140.17 223.12 140.17 220.37 143.47 210.36 143.47 207.34 140.17" fill="#ffd200"/><polygon points="207.34 140.17 223.12 140.17 220.37 143.47 210.36 143.47 207.34 140.17" fill="#ce8172" opacity="0.31"/><path d="M218.06,129.94s3.25-5.82-1.08-7.43-7,3.11-8.7-3.11-4.9-8.17-10.95-6.63-.47,9.3-7.25,10-5.42,10.76.28,10.56,10-10.9,12.28-7.2,7.45,4.16,7.45,4.16Z" fill="#fff" opacity="0.54"/><path d="M150.19,131.44s12.62-1.61,13.83,13-3.49,31.16,11.42,35.59H150.19Z" fill="#643ced"/><path d="M150.19,131.44s12.62-1.61,13.83,13-3.49,31.16,11.42,35.59H150.19Z" fill="#fff" opacity="0.46"/><polygon points="64.94 48.83 51.46 40.97 105.86 34.91 80.98 71.7 72.12 52.76 64.94 48.83" fill="#ffd200"/><polygon points="64.94 48.83 68.7 62.57 72.12 52.76 105.86 34.91 64.94 48.83" fill="#ffd200"/><polygon points="64.94 48.83 68.7 62.57 72.12 52.76 105.86 34.91 64.94 48.83" fill="#fff" opacity="0.46"/><polygon points="68.7 62.57 74.71 58.3 72.12 52.76 68.7 62.57" fill="#24285b"/><rect x="227.45" y="25.41" width="73" height="43.41" fill="#24285b"/><rect x="227.45" y="68.81" width="24.65" height="8.7" opacity="0.12"/><path d="M254.2,38.82a5.16,5.16,0,0,0-3.21,1.1,7.41,7.41,0,0,0-1.87,2.25,7.27,7.27,0,0,0-1.87-2.25,5.15,5.15,0,0,0-3.2-1.1c-3.28,0-5.75,2.68-5.75,6.23,0,3.84,3.08,6.47,7.75,10.45.79.68,1.69,1.44,2.63,2.26a.66.66,0,0,0,.44.17.68.68,0,0,0,.45-.17c.93-.82,1.83-1.58,2.62-2.26,4.67-4,7.76-6.61,7.76-10.45C260,41.5,257.47,38.82,254.2,38.82Z" fill="#643ced"/><path d="M268.79,51.36a2,2,0,0,0,2.15,1.74c1.56,0,2.24-1.17,2.24-4.29a3.59,3.59,0,0,1-2.93,1.3,4.1,4.1,0,0,1-4.32-4.44,4.32,4.32,0,0,1,4.68-4.6c3.77,0,4.93,2.55,4.93,6.94,0,4.72-1.05,7.27-4.72,7.27a4.13,4.13,0,0,1-4.51-3.92Zm4.14-5.67a2.11,2.11,0,0,0-2.22-2.36,2.31,2.31,0,0,0,.09,4.61A2,2,0,0,0,272.93,45.69Z" fill="#fff"/><path d="M280.69,51.36a2,2,0,0,0,2.15,1.74c1.56,0,2.25-1.17,2.25-4.29a3.6,3.6,0,0,1-2.93,1.3,4.1,4.1,0,0,1-4.32-4.44,4.32,4.32,0,0,1,4.68-4.6c3.77,0,4.93,2.55,4.93,6.94,0,4.72-1.05,7.27-4.72,7.27a4.13,4.13,0,0,1-4.51-3.92Zm4.15-5.67a2.23,2.23,0,1,0-2.13,2.25A2,2,0,0,0,284.84,45.69Z" fill="#fff"/></svg>