<svg id="Layer_1" data-name="Layer 1" xmlns="http://www.w3.org/2000/svg" viewBox="0 0 400 300"><title>#108_hero employee_twocolour</title><path d="M93.59,86.34c-28.68,17.46-45.67,49.51-43,83C52,186.43,58.36,202.93,75.17,212c44.83,24,240.54,24.45,269.51-18s18.19-102.84-44.8-128C245.27,44.13,167.63,41.25,93.59,86.34Z" fill="#e6e6e6" opacity="0.3"/><rect x="273.44" y="73.48" width="22.81" height="31.43" transform="translate(-11.54 124.55) rotate(-24.19)" fill="#c9c9c9" opacity="0.58"/><path d="M162.55,104.67l-23.19,10.26a45,45,0,0,1-50.62-10L65.91,81.15l-8.7,6,19.2,29a77.12,77.12,0,0,0,75.72,33.66l33.71-5.05Z" fill="#6557ee"/><path d="M162.55,104.67l-23.19,10.26a45,45,0,0,1-50.62-10L65.91,81.15l-8.7,6,19.2,29a77.12,77.12,0,0,0,75.72,33.66l33.71-5.05Z" fill="#fff" opacity="0.46"/><path d="M288.47,124.45s25-8.91,43,11,26,56,26,56-56-26-85,0S194.64,189,194.64,189l-16.28-55.59L166.5,109.81,194.64,97.6l37.33.67L247,114l15,13.55Z" fill="#ffd200"/><path d="M288.47,124.45s25-8.91,43,11,26,56,26,56-56-26-85,0S194.64,189,194.64,189l-16.28-55.59L166.5,109.81,194.64,97.6l37.33.67L247,114l15,13.55Z" opacity="0.08"/><path d="M229.35,234.69s4.13,3.63,2.78,8.12,2.46,7.32,5.11,3.84,1.61-15.54,1.61-15.54l-8.11-2.79Z" fill="#6557ee"/><path d="M299.52,239.52s5.35,1.29,6.25,5.9,5.58,5.32,6.31,1-5.83-14.5-5.83-14.5l-8.47,1.32Z" fill="#6557ee"/><path d="M182.14,191.32l36.78,26.24a121,121,0,0,0,64.9,22.38l15.32.68v-8.34L274.46,224a63.35,63.35,0,0,1-24.92-15.62l-24.4-24.84Z" fill="#24285b"/><path d="M182.14,191.32l36.78,26.24a121,121,0,0,0,64.9,22.38l15.32.68v-8.34L274.46,224a63.35,63.35,0,0,1-24.92-15.62l-24.4-24.84Z" opacity="0.08"/><rect x="338.3" y="227.42" width="23.32" height="32.14" transform="translate(53.82 -63.2) rotate(11.17)" fill="#e6e6e6" opacity="0.75"/><rect x="189.89" y="243.19" width="20.22" height="27.86" transform="translate(-101.76 134.45) rotate(-30)" fill="#e6e6e6" opacity="0.75"/><path d="M156.88,75.65s-2.56,5.45-3,9.54a3,3,0,0,0,2.72,3.32,6.69,6.69,0,0,0,6.63-2.91l3.5-4.32A5.4,5.4,0,0,0,166.5,75C164.16,71.58,158.27,72.25,156.88,75.65Z" fill="#f4a28c"/><polygon points="164.21 81.99 168.54 101.23 157.77 102.87 158.94 88.21 164.21 81.99" fill="#f4a28c"/><path d="M158.2,76.4a24.19,24.19,0,0,0,5.35,1.51,5,5,0,0,0-1.9,5.17,4.09,4.09,0,0,0,4.07,3.24L168.3,79a6.17,6.17,0,0,0-1-6.21,22.76,22.76,0,0,0-2-2.07c-1.78-1.61-5.35-1.34-6.71-3.44a1.45,1.45,0,0,0-2.49.1c-1.14,2.09-2,5.71.52,8A5.84,5.84,0,0,0,158.2,76.4Z" fill="#24285b"/><path d="M161.11,82.69s.84-2.16,2.41-1.39.38,3.9-2,3.38Z" fill="#f4a28c"/><path d="M155.45,79.17l-2.38,1.59a1,1,0,0,0,.05,1.63l2,1.2Z" fill="#f4a28c"/><path d="M159.14,88.66a7.12,7.12,0,0,0,3.78-1.58s.24,3.63-4.18,6.6Z" fill="#ce8172" opacity="0.31"/><path d="M157.77,102.87l10.77-1.63s54.93-15.49,62.93,17.46,7.06,54.71,7.06,54.71l-37.06,18S99.47,150,157.77,102.87Z" fill="#6557ee"/><rect x="150.55" y="134.44" width="29.1" height="40.31" transform="translate(-34.7 48.59) rotate(-15.17)" fill="#24285b"/><rect x="153.5" y="132.77" width="10.04" height="5.45" transform="translate(-29.93 46.2) rotate(-15.17)" fill="#ffd200"/><path d="M181.7,123.47s-6,14.87,16.52,19.67,22.5,20,7.75,20.89-36.53-7.09-36.14,10.17c0,0,17.14,11.75,31.64,17.25l37.06-18,0-2.3L240.47,139l-19.25-18.5Z" opacity="0.08"/><path d="M179.52,113.86c1.41-10.27,11.07-17.3,21.37-16.13,14.13,1.6,35.55,7.92,45.47,30.58,15.5,35.42,6,57.52-68,35.72l2-8.3s50,6,47-9.77C224.83,132.69,176.27,137.63,179.52,113.86Z" fill="#6557ee"/><path d="M179.52,113.86c1.41-10.27,11.07-17.3,21.37-16.13,14.13,1.6,35.55,7.92,45.47,30.58,15.5,35.42,6,57.52-68,35.72l2-8.3s50,6,47-9.77C224.83,132.69,176.27,137.63,179.52,113.86Z" fill="#fff" opacity="0.46"/><path d="M164.79,96.14a34.39,34.39,0,0,0-16.16,8.35,22.24,22.24,0,0,0-5.65,7.88c-3.51,9.08,16,11.41,39.51,2.24s34-16.56,53-4.36,27,26.2,53,14.2c0,0-31,0-41-23.48C239.16,81.43,183.41,92,164.79,96.14Z" fill="#ffd200"/><path d="M180.36,155.73S173.47,149,168.72,150s-2,10.87,9.64,14.08Z" fill="#f4a28c"/><path d="M238.53,173.41s-71.85,9-68.7,27,60.14,36,60.14,36l4.5-9-37-26.5S260.09,215.87,238.53,173.41Z" fill="#24285b"/><path d="M57.21,87.11s-16-2.13-11.66-6.62,20.36.66,20.36.66Z" fill="#f4a28c"/><path d="M39.76,28.33H71S74.26,53,55.36,53C55.36,53,37.31,53.59,39.76,28.33Z" fill="#ffd200"/><ellipse cx="55.38" cy="28.63" rx="15.62" ry="4.46" fill="#ffd200"/><ellipse cx="55.38" cy="28.63" rx="15.62" ry="4.46" opacity="0.08"/><rect x="47" y="63.5" width="15.67" height="15.67" fill="#24285b"/><rect x="53.88" y="48.13" width="3.34" height="15.38" fill="#ffd200"/><path d="M42,37.33H36.42a6.09,6.09,0,0,0-6.09,6.09h0a6.09,6.09,0,0,0,6.09,6.08H52.33" fill="none" stroke="#ffd200" stroke-miterlimit="10" stroke-width="3"/><path d="M68.76,37.33h5.58a6.09,6.09,0,0,1,6.09,6.09h0a6.09,6.09,0,0,1-6.09,6.08H58.43" fill="none" stroke="#ffd200" stroke-miterlimit="10" stroke-width="3"/><circle cx="50.17" cy="41.75" r="5.37" fill="#fff" opacity="0.46"/></svg>