<svg id="Layer_1" data-name="Layer 1" xmlns="http://www.w3.org/2000/svg" viewBox="0 0 400 300"><title>#76_hiking_twocolour</title><path d="M119.89,54.5c-47,12.32-76.86,54.43-67.53,97.4,4.9,22.59,20.34,43.78,57.19,53.77,98.28,26.65,200.77,8.74,231.17-32.79S346.57,42.17,245.94,39.4C196.65,38,152.31,46,119.89,54.5Z" fill="#e6e6e6" opacity="0.27"/><ellipse cx="120.08" cy="258.04" rx="87.83" ry="12.28" fill="#e6e6e6" opacity="0.45"/><path d="M165.58,200l59.52-88.92,60.37,95.85s-31.6,12.8-97,12.19Z" fill="#e6e6e6" opacity="0.43"/><path d="M59.93,171.63s-2.6-10,9.74-14,2.69,10.69,16.18,18,16.38-16,28.6-5.67,17.22,18.43,35.55,7.33,29.45,3.22,25.89,14.11,24.44,1.74,24.11,26.82C200,218.26,76.2,217.92,59.93,171.63Z" fill="#e6e6e6"/><polygon points="117.82 117.86 120.62 126.27 113.97 130.5 111.57 115.93 117.82 117.86" fill="#f4a28c"/><path d="M109.29,107.8a5.24,5.24,0,0,1,8.66-1.45c2.83,3,6.24,7.83,2.38,10.45-5.91,4-11.33-3.48-11.33-3.48A9.52,9.52,0,0,1,109.29,107.8Z" fill="#f4a28c"/><path d="M113.61,113s-1.51-1.27-2.2.53,2,2.67,2.79,1.76S113.61,113,113.61,113Z" fill="#f4a28c"/><path d="M108.31,130.58S84.5,145,81.37,178.84a11.73,11.73,0,0,0,8.89,12.54l27.91,6.73Z" fill="#643ced"/><path d="M108.31,130.58S84.5,145,81.37,178.84a11.73,11.73,0,0,0,8.89,12.54l27.91,6.73Z" fill="#fff" opacity="0.2"/><path d="M106.92,110.78c1.81,4.48-.29,7.86,5.19,8.43s2.34-8.43,2.34-8.43,0-5.29,2.88-6.12c0,0-2.06-2.33-6,0S105.73,107.82,106.92,110.78Z" fill="#24285b"/><path d="M102.81,137.66a19.14,19.14,0,0,1,12-10.49c10.18-3.06,29.52-9.48,35.23,0,7.82,13-4.22,64.22-4.22,64.22l-34.21,2.65S92.8,160.15,102.81,137.66Z" fill="#643ced"/><polygon points="145.83 191.44 141.33 250.26 136.28 250.26 127.86 204.56 112.14 194.09 145.83 191.44" fill="#f4a28c"/><path d="M132.59,121.27s12.54-5,20.1,5,4.47,44.24-8.11,54.6l.1-9.13s6.07-5.75,4.57-20.25,1.56-25-14-26.5Z" fill="#24285b"/><path d="M184.33,115.93l-8.16-.32L173,145.33c-7.79-8-18.51-15.86-24.15-20.08a10.15,10.15,0,0,0-16.21,7.41C130.92,157,178.87,171,181.92,160.6h0C187.52,145.7,184.33,115.93,184.33,115.93Z" fill="#643ced"/><path d="M184.33,115.93l-8.16-.32L173,145.33c-7.79-8-18.51-15.86-24.15-20.08a10.15,10.15,0,0,0-16.21,7.41C130.92,157,178.87,171,181.92,160.6h0C187.52,145.7,184.33,115.93,184.33,115.93Z" fill="#fff" opacity="0.2"/><polygon points="112.14 194.09 103.7 250.26 108.56 250.26 126.42 203.6 112.14 194.09" fill="#f4a28c"/><path d="M117.78,126.28s-16,51.54,30.21,55l-2.16,10.2-34.21,2.65a88.81,88.81,0,0,1-11.55-45.51s.3-13.15,9.55-19A20.86,20.86,0,0,1,117.78,126.28Z" opacity="0.08"/><polygon points="110.83 194.83 104.5 226.17 120.62 228.33 126.42 205.67 128.99 228.33 144.39 227.33 145.83 191.44 110.83 194.83" fill="#24285b"/><path d="M103.7,250.26,99,253.74a1,1,0,0,0,.62,1.88h7.93a1,1,0,0,0,1-1v-4.32Z" fill="#643ced"/><path d="M141.13,250.26l4.45,3.48a1,1,0,0,1-.64,1.88h-5.65a3,3,0,0,1-3-3v-2.35Z" fill="#643ced"/><path d="M93.12,149.91a21.19,21.19,0,0,1,13.12-21.61c8.37-3.35,19.06-8.15,27.48-6.91,15.17,2.24,12.68,43.09,10.4,63.93A14.85,14.85,0,0,1,131,198.56l-12.88,1.36a17.09,17.09,0,0,1-18.16-12.23A197.5,197.5,0,0,1,93.12,149.91Z" fill="#ffd200"/><path d="M85.62,151.56a20.88,20.88,0,0,1,13.12-21.33c8.37-3.31,19.06-8,27.48-6.82,15.17,2.21,12.68,42.54,10.4,63.11a14.77,14.77,0,0,1-13.16,13.07l-12.88,1.34a17.08,17.08,0,0,1-18.16-12.08A193.46,193.46,0,0,1,85.62,151.56Z" fill="#ffd200"/><path d="M85.62,151.56a20.88,20.88,0,0,1,13.12-21.33c8.37-3.31,19.06-8,27.48-6.82,15.17,2.21,12.68,42.54,10.4,63.11a14.77,14.77,0,0,1-13.16,13.07l-12.88,1.34a17.08,17.08,0,0,1-18.16-12.08A193.46,193.46,0,0,1,85.62,151.56Z" opacity="0.08"/><path d="M107.75,114.07l9.58-9.41s-1.56-4-5.19-5.49S94,102.47,107.75,114.07Z" fill="#ffd200"/><circle cx="108.32" cy="153.82" r="3.82" fill="#fff"/><path d="M177.83,115.61s-1.5-7.14,2.5-9.13,4,9.45,4,9.45Z" fill="#f4a28c"/><rect x="170.83" y="95.83" width="10.11" height="16.69" fill="#ffd200"/><path d="M88.7,255.62s9.23-13.26-4.53-16.92,3.31-21.53-9.5-23.88S64,231.38,64,231.38s-8.85-7.63-15-1.22,2.44,13.43,2.44,13.43-12.32,4.25-4.63,12Z" fill="#e6e6e6"/><polygon points="199.34 54.58 152.44 54.58 152.44 83.25 173.88 83.25 175.89 91 178.55 83.25 199.34 83.25 199.34 54.58" fill="#24285b"/><path d="M70.2,257.39s5.86-10,14.5-8.79,7.71,8.79,7.71,8.79Z" fill="#c9c9c9"/><path d="M172,66a6.37,6.37,0,1,0-11.81,3.31h0l5.44,8.92L171,69.35h0A6.33,6.33,0,0,0,172,66Zm-6.37,3.38a3.12,3.12,0,1,1,3.11-3.11A3.11,3.11,0,0,1,165.58,69.37Z" fill="#ffd200"/><rect x="177.56" y="63.14" width="14.78" height="4.53" fill="#fff"/><rect x="177.56" y="71.14" width="14.78" height="4.53" fill="#fff" opacity="0.37"/><path d="M152.69,214.57s-4.54-12.07,9.78-16.46,9.2,11,21.86,4.62,19.34-13.36,26.34-1.71,25-7.47,26,15.59C236.66,216.61,193.05,223.47,152.69,214.57Z" fill="#c9c9c9"/><path d="M254.74,158.15,302.5,67.67l45.63,91.53s-10.94,34.68-62.66,47.74Z" fill="#e6e6e6"/><circle cx="252.58" cy="84.83" r="15.92" fill="#e6e6e6"/><path d="M336,109.77a4.59,4.59,0,0,0-4.58-4.59,4.53,4.53,0,0,0-.74.07,6.16,6.16,0,0,0-5.44-3.25H325a7.48,7.48,0,0,0,.22-1.78,7.33,7.33,0,1,0-14.66,0,7,7,0,0,0,.23,1.78h-.23a6.18,6.18,0,1,0,0,12.35H332v0A4.59,4.59,0,0,0,336,109.77Z" fill="#fff"/><path d="M66.64,122a3,3,0,0,1,3-3,3.89,3.89,0,0,1,.49,0,4.07,4.07,0,0,1,3.58-2.14h.15a4.93,4.93,0,0,1-.15-1.17,4.83,4.83,0,0,1,9.66,0,4.93,4.93,0,0,1-.15,1.17h.15a4.07,4.07,0,0,1,0,8.14H69.26v0A3,3,0,0,1,66.64,122Z" fill="#fff"/><path d="M252.58,100.14a3.22,3.22,0,0,0-3.22-3.21,4.21,4.21,0,0,0-.51,0A4.34,4.34,0,0,0,245,94.69h-.16a5.15,5.15,0,1,0-10,0h-.16a4.34,4.34,0,0,0,0,8.67h15v0A3.22,3.22,0,0,0,252.58,100.14Z" fill="#fff"/></svg>